<svg xmlns="http://www.w3.org/2000/svg" viewBox="0 0 24 24" fill="#FFFFFF" width="50px" height="50px">
  <path d="M0 0h24v24H0z" fill="none"/>
  <path d="M12 2C6.48 2 2 6.48 2 12s4.48 10 10 10 10-4.48 10-10S17.52 2 12 2zm0 18c-4.42 0-8-3.58-8-8s3.58-8 8-8 8 3.58 8 8-3.58 8-8 8zm-2-12c0-1.11.89-2 2-2 .43 0 .85.12 1.21.35-.53.57-.91 1.27-1.07 2-.2.89.09 1.74.72 2.39.65.66 1.51.97 2.39.77.73-.17 1.43-.54 2-1.07-.32.55-.61 1.09-.86 1.64-.53 1.14-1.15 2.28-1.8 3.41-.51-.06-1.01-.09-1.51-.09-1.28 0-2.54.2-3.76.6-1.09.33-2.14.8-3.15 1.41-.89.55-1.66 1.26-2.32 2.09-.76.94-1.35 1.99-1.77 3.13h2c.39-1.06.87-2.04 1.43-2.93.5-.84 1.12-1.55 1.86-2.15.85-.73 1.81-1.3 2.85-1.72.45-.18.92-.32 1.39-.44z"/>
</svg>
