<svg xmlns="http://www.w3.org/2000/svg" viewBox="0 0 24 24" fill="#FFD700" width="50px" height="50px">
  <path d="M0 0h24v24H0z" fill="none"/>
  <path d="M12 2C6.48 2 2 6.48 2 12s4.48 10 10 10 10-4.48 10-10S17.52 2 12 2zm0 18c-4.42 0-8-3.58-8-8s3.58-8 8-8 8 3.58 8 8-3.58 8-8 8zm-1-15h2v4h-2zm4 0h2v4h-2zm-7.45 4.89l1.41 1.41 1.45-1.45c-.47-.56-.83-1.2-1.06-1.89H7.55c-.24.69-.6 1.33-1.05 1.89l1.45 1.45 1.41-1.41zM12 19c-.74 0-1.41-.19-2-.51.59-.33 1.12-.77 1.55-1.31.15.11.31.2.47.29.39.22.78.41 1.18.57.27.11.54.22.81.3.15.05.31.08.46.12.31.07.63.11.95.11.32 0 .64-.04.95-.11.15-.03.3-.07.45-.12.27-.08.54-.19.81-.3.4-.16.79-.35 1.18-.57.14-.09.29-.18.43-.28.42.54.95.98 1.54 1.31a3.93 3.93 0 0 1-2 .51z"/>
</svg>
